<svg id="Layer_1" data-name="Layer 1" xmlns="http://www.w3.org/2000/svg" viewBox="0 0 242.09 251.91"><defs><style>.cls-1{fill:#f15a24;}.cls-2{fill:#8cc63f;}</style></defs><path class="cls-1" d="M7192.37,7213s-32.76-86.55,13-110.66c0,0,30.29-17.28,50.07,9.89,0,0,11.13,1.54,3.71-15.31,0,0-11.75-29.82-53.78-18.69,0,0-47.61,16.06-40.19,66.14C7165.17,7144.35,7167,7185.16,7192.37,7213Z" transform="translate(-7078.45 -7075.72)"/><path class="cls-1" d="M7194.86,7215.62s92.27,7.11,102.55-43.57c0,0,8.06-33.92-23.57-45.27,0,0-4.6-10.25,13.65-7.86,0,0,31.92,2.89,33.06,46.36,0,0-2,50.2-52.19,57.15C7268.36,7222.43,7228.68,7232.12,7194.86,7215.62Z" transform="translate(-7078.45 -7075.72)"/><path class="cls-2" d="M7132.24,7087.48c-22.1,51.25-2.36,113.18,53.78,132.92C7122.37,7158.68,7176.9,7128.46,7132.24,7087.48Z" transform="translate(-7078.45 -7075.72)"/><path class="cls-2" d="M7085.87,7149.3c-5.72,49.18,37.38,85,87.62,82.84C7117.41,7218.59,7139.07,7191.57,7085.87,7149.3Z" transform="translate(-7078.45 -7075.72)"/><path class="cls-2" d="M7078.45,7232.23s8.66,24.64,38.95,24.64,47-3.71,47-3.71-25.41-6.18-35-11.13S7103.8,7224.9,7078.45,7232.23Z" transform="translate(-7078.45 -7075.72)"/><path class="cls-2" d="M7099.47,7294a47.74,47.74,0,0,0,32.77,3.09c17.93-4.94,32.15-21.63,32.15-24.11s-27.21,4.33-32.46,3.71S7113.07,7274.8,7099.47,7294Z" transform="translate(-7078.45 -7075.72)"/><path class="cls-2" d="M7154.7,7325.49s25.43-13.6,18.79-37.71a78.77,78.77,0,0,1-18.79,16.07C7142.75,7311.27,7161.09,7334.77,7154.7,7325.49Z" transform="translate(-7078.45 -7075.72)"/><path class="cls-2" d="M7184.17,7325.7s16.43-4.2,10.69-27c0,0-3.68,8.49-10.69,10.55S7184.17,7325.7,7184.17,7325.7Z" transform="translate(-7078.45 -7075.72)"/></svg>